<?xml version="1.0" encoding="UTF-8" standalone="no"?>
<!-- Created with Inkscape (http://www.inkscape.org/) -->

<svg
   xmlns:dc="http://purl.org/dc/elements/1.1/"
   xmlns:cc="http://creativecommons.org/ns#"
   xmlns:rdf="http://www.w3.org/1999/02/22-rdf-syntax-ns#"
   xmlns:svg="http://www.w3.org/2000/svg"
   xmlns="http://www.w3.org/2000/svg"
   xmlns:sodipodi="http://sodipodi.sourceforge.net/DTD/sodipodi-0.dtd"
   xmlns:inkscape="http://www.inkscape.org/namespaces/inkscape"
   version="1.1"
   id="svg3070"
   xml:space="preserve"
   width="1056"
   height="816"
   viewBox="0 0 1056 816"
   sodipodi:docname="blue-circles-art-freesvg.org.svg"
   inkscape:version="0.92.4 (5da689c313, 2019-01-14)"><metadata
     id="metadata3076"><rdf:RDF><cc:Work
         rdf:about=""><dc:format>image/svg+xml</dc:format><dc:type
           rdf:resource="http://purl.org/dc/dcmitype/StillImage" /><dc:title></dc:title></cc:Work></rdf:RDF></metadata><defs
     id="defs3074"><clipPath
       clipPathUnits="userSpaceOnUse"
       id="clipPath3086"><path
         d="M 0,612 H 792 V 0 H 0 Z"
         id="path3084"
         inkscape:connector-curvature="0" /></clipPath></defs><sodipodi:namedview
     pagecolor="#ffffff"
     bordercolor="#666666"
     borderopacity="1"
     objecttolerance="10"
     gridtolerance="10"
     guidetolerance="10"
     inkscape:pageopacity="0"
     inkscape:pageshadow="2"
     inkscape:window-width="1920"
     inkscape:window-height="1018"
     id="namedview3072"
     showgrid="false"
     inkscape:zoom="0.79464116"
     inkscape:cx="625.83051"
     inkscape:cy="350.94915"
     inkscape:window-x="-8"
     inkscape:window-y="-8"
     inkscape:window-maximized="1"
     inkscape:current-layer="g3078" /><g
     id="g3078"
     inkscape:groupmode="layer"
     inkscape:label="abstract-95-publicdomainvectors.org [Converted]"
     transform="matrix(1.3333333,0,0,-1.3333333,0,816)"><g
       id="g3080"><g
         id="g3082"
         clip-path="url(#clipPath3086)"><path
           d="m 197.209,323.513 c 9.666,2.859 15.184,12.977 12.296,22.554 -2.885,9.577 -13.102,15.044 -22.772,12.183 -9.666,-2.861 -15.183,-12.982 -12.294,-22.555 2.886,-9.579 13.103,-15.044 22.77,-12.182"
           style="fill:#1c0000;fill-opacity:1;fill-rule:nonzero;stroke:none"
           id="path3088"
           inkscape:connector-curvature="0" /><path
           d="m 175.808,336.1 c -1.288,4.268 -0.815,8.785 1.329,12.716 2.141,3.933 5.697,6.8 10.004,8.076 4.312,1.275 8.874,0.809 12.843,-1.315 3.97,-2.124 6.865,-5.645 8.152,-9.915 2.659,-8.829 -2.425,-18.158 -11.337,-20.791 -4.31,-1.275 -8.867,-0.808 -12.838,1.312 -3.972,2.123 -6.864,5.647 -8.153,9.917 m 21.808,-13.945 c 10.423,3.083 16.373,13.992 13.259,24.317 -1.505,4.994 -4.888,9.114 -9.531,11.595 -4.643,2.485 -9.978,3.032 -15.019,1.537 -5.042,-1.491 -9.198,-4.846 -11.706,-9.442 -2.506,-4.597 -3.059,-9.879 -1.55,-14.874 1.506,-4.993 4.891,-9.113 9.534,-11.597 4.64,-2.482 9.975,-3.028 15.013,-1.536"
           style="fill:#00adef;fill-opacity:1;fill-rule:nonzero;stroke:none"
           id="path3090"
           inkscape:connector-curvature="0" /><path
           d="m 157.113,458.013 c 0.552,0.411 0.661,1.198 0.244,1.743 -0.415,0.545 -1.206,0.655 -1.756,0.24 -0.552,-0.414 -0.663,-1.194 -0.247,-1.738 0.419,-0.55 1.206,-0.655 1.759,-0.245"
           style="fill:#1c0000;fill-opacity:1;fill-rule:nonzero;stroke:none"
           id="path3092"
           inkscape:connector-curvature="0" /><path
           d="m 156.498,459.111 c 0.058,-0.078 0.044,-0.185 -0.033,-0.243 -0.038,-0.028 -0.089,-0.042 -0.132,-0.035 -0.045,0.006 -0.09,0.033 -0.119,0.069 -0.023,0.035 -0.037,0.081 -0.031,0.124 0.005,0.046 0.033,0.092 0.068,0.117 0.08,0.06 0.187,0.042 0.247,-0.032 m 1.479,-2.23 c 0.568,0.428 0.94,1.052 1.038,1.758 0.098,0.707 -0.086,1.408 -0.518,1.973 -0.429,0.563 -1.059,0.929 -1.772,1.024 -0.71,0.099 -1.419,-0.082 -1.988,-0.51 -1.177,-0.885 -1.411,-2.555 -0.525,-3.724 0.89,-1.167 2.577,-1.402 3.765,-0.521"
           style="fill:#2a2627;fill-opacity:1;fill-rule:nonzero;stroke:none"
           id="path3094"
           inkscape:connector-curvature="0" /><path
           d="m 113.272,546.522 c 6.025,17.461 -3.414,36.522 -21.043,42.49 -17.628,5.971 -36.87,-3.378 -42.896,-20.84 -6.028,-17.464 3.411,-36.526 21.039,-42.494 17.629,-5.968 36.872,3.381 42.9,20.844"
           style="fill:#1c0000;fill-opacity:1;fill-rule:nonzero;stroke:none"
           id="path3096"
           inkscape:connector-curvature="0" /><path
           d="m 70.833,527.018 c -8.162,2.764 -14.755,8.526 -18.566,16.218 -3.812,7.698 -4.374,16.389 -1.583,24.476 2.792,8.087 8.607,14.622 16.376,18.394 7.766,3.776 16.545,4.331 24.706,1.566 16.883,-5.716 25.922,-23.969 20.154,-40.692 -5.773,-16.722 -24.203,-25.674 -41.087,-19.962 m 43.79,19.045 c 6.281,18.199 -3.558,38.067 -21.933,44.29 -8.885,3.008 -18.435,2.403 -26.892,-1.704 -8.453,-4.104 -14.781,-11.216 -17.82,-20.02 -3.04,-8.802 -2.43,-18.265 1.721,-26.639 4.148,-8.375 11.323,-14.642 20.214,-17.651 18.37,-6.223 38.432,3.523 44.71,21.724"
           style="fill:#312d2e;fill-opacity:1;fill-rule:nonzero;stroke:none"
           id="path3098"
           inkscape:connector-curvature="0" /><path
           d="m 406.341,410.319 c -13.671,37.145 -55.309,56.35 -92.811,42.807 -37.506,-13.541 -56.891,-54.784 -43.219,-91.931 13.675,-37.148 55.305,-56.353 92.81,-42.81 37.503,13.546 56.893,54.783 43.22,91.934"
           style="fill:#00adef;fill-opacity:1;fill-rule:nonzero;stroke:none"
           id="path3100"
           inkscape:connector-curvature="0" /><path
           d="m 450.993,504.983 c -14.247,17.041 -34.375,27.57 -56.674,29.644 -22.301,2.076 -44.06,-4.55 -61.261,-18.667 -17.205,-14.111 -27.834,-34.049 -29.93,-56.136 -2.096,-22.092 4.597,-43.639 18.848,-60.679 29.454,-35.235 82.361,-40.16 117.928,-10.981 35.575,29.18 40.545,81.584 11.089,116.819 z"
           style="fill:none;stroke:#00adef;stroke-width:1.11099994;stroke-linecap:butt;stroke-linejoin:miter;stroke-miterlimit:4;stroke-dasharray:none;stroke-opacity:1"
           id="path3102"
           inkscape:connector-curvature="0" /><path
           d="m 168.097,148.244 c 31.332,-20.7 73.823,-12.292 94.72,18.744 20.9,31.031 12.412,73.119 -18.919,93.821 -31.33,20.705 -73.82,12.292 -94.72,-18.738 -20.9,-31.035 -12.412,-73.126 18.919,-93.827"
           style="fill:#1c0000;fill-opacity:1;fill-rule:nonzero;stroke:none"
           id="path3104"
           inkscape:connector-curvature="0" /><path
           d="m 150.37,241.287 c 9.893,14.692 25.003,24.695 42.54,28.167 17.533,3.467 35.361,-0.021 50.193,-9.823 14.836,-9.802 24.936,-24.766 28.44,-42.135 3.5,-17.368 -0.021,-35.028 -9.918,-49.725 -9.894,-14.692 -25,-24.701 -42.535,-28.167 -17.535,-3.469 -35.364,0.019 -50.199,9.82 -14.836,9.802 -24.934,24.765 -28.438,42.135 -3.502,17.368 0.019,35.03 9.917,49.728 m 16.935,-94.22 c 15.468,-10.221 34.062,-13.861 52.345,-10.239 18.286,3.616 34.036,14.046 44.357,29.373 21.334,31.682 12.671,74.653 -19.317,95.787 -31.983,21.135 -75.363,12.552 -96.699,-19.13 -10.321,-15.326 -13.993,-33.743 -10.341,-51.852 3.653,-18.114 14.182,-33.716 29.655,-43.939"
           style="fill:#312d2e;fill-opacity:1;fill-rule:nonzero;stroke:none"
           id="path3106"
           inkscape:connector-curvature="0" /><path
           d="m 204.168,399.111 c -3.433,37.363 8.07,73.856 32.38,102.758 24.315,28.902 58.478,46.69 96.198,50.086 77.992,7.027 147.215,-50.105 154.307,-127.359 3.431,-37.363 -8.067,-73.855 -32.383,-102.757 -24.311,-28.903 -58.475,-46.691 -96.194,-50.09 -77.992,-7.026 -147.215,50.107 -154.308,127.362 M 358.735,268.929 c 38.479,3.465 73.33,21.612 98.135,51.095 24.8,29.486 36.532,66.714 33.034,104.83 -7.242,78.809 -77.855,137.093 -157.419,129.927 -38.48,-3.468 -73.333,-21.615 -98.133,-51.1 -24.8,-29.481 -36.533,-66.711 -33.033,-104.829 7.239,-78.808 77.852,-137.094 157.416,-129.923"
           style="fill:#383435;fill-opacity:1;fill-rule:nonzero;stroke:none"
           id="path3108"
           inkscape:connector-curvature="0" /><path
           d="m 204.168,399.111 c -3.433,37.363 8.07,73.856 32.38,102.758 24.315,28.902 58.478,46.69 96.198,50.086 77.992,7.027 147.215,-50.105 154.307,-127.359 3.431,-37.363 -8.067,-73.855 -32.383,-102.757 -24.311,-28.903 -58.475,-46.691 -96.194,-50.09 -77.992,-7.026 -147.215,50.107 -154.308,127.362 z M 358.735,268.929 c 38.479,3.465 73.33,21.612 98.135,51.095 24.8,29.486 36.532,66.714 33.034,104.83 -7.242,78.809 -77.855,137.093 -157.419,129.927 -38.48,-3.468 -73.333,-21.615 -98.133,-51.1 -24.8,-29.481 -36.533,-66.711 -33.033,-104.829 7.239,-78.808 77.852,-137.094 157.416,-129.923 z"
           style="fill:none;stroke:#00adef;stroke-width:0.99900001;stroke-linecap:butt;stroke-linejoin:miter;stroke-miterlimit:4;stroke-dasharray:none;stroke-opacity:1"
           id="path3110"
           inkscape:connector-curvature="0" /><path
           d="M 177.57,172.654 C 160.237,107.055 200.02,39.717 266.245,22.548 332.47,5.38 400.451,44.784 417.783,110.385 435.115,175.984 395.336,243.323 329.106,260.491 262.883,277.657 194.903,238.257 177.57,172.654 Z"
           style="fill:none;stroke:#00adef;stroke-width:1.11099994;stroke-linecap:butt;stroke-linejoin:miter;stroke-miterlimit:4;stroke-dasharray:none;stroke-opacity:1"
           id="path3112"
           inkscape:connector-curvature="0" /><path
           d="m 434.21,313.73 c 8.194,0.154 14.738,6.885 14.583,15.003 -0.157,8.119 -6.949,14.599 -15.146,14.445 -8.196,-0.152 -14.739,-6.883 -14.584,-15.002 0.155,-8.118 6.951,-14.599 15.147,-14.446"
           style="fill:#00adef;fill-opacity:1;fill-rule:nonzero;stroke:none"
           id="path3114"
           inkscape:connector-curvature="0" /><path
           d="m 360.424,461.398 c 8.194,0.153 14.737,6.884 14.582,15.002 -0.156,8.119 -6.949,14.599 -15.145,14.446 -8.196,-0.153 -14.74,-6.884 -14.585,-15.003 0.155,-8.118 6.952,-14.598 15.148,-14.445"
           style="fill:#00adef;fill-opacity:1;fill-rule:nonzero;stroke:none"
           id="path3116"
           inkscape:connector-curvature="0" /><path
           d="m 393.438,215.284 c 4.875,0.092 8.767,4.095 8.675,8.924 -0.092,4.831 -4.133,8.686 -9.009,8.594 -4.875,-0.09 -8.769,-4.095 -8.676,-8.925 0.092,-4.829 4.135,-8.683 9.01,-8.593"
           style="fill:#00adef;fill-opacity:1;fill-rule:nonzero;stroke:none"
           id="path3118"
           inkscape:connector-curvature="0" /><path
           d="m 310.617,109.382 c 4.875,0.092 8.767,4.094 8.675,8.924 -0.093,4.83 -4.134,8.684 -9.01,8.593 -4.875,-0.09 -8.768,-4.095 -8.676,-8.924 0.092,-4.83 4.135,-8.685 9.011,-8.593"
           style="fill:#00adef;fill-opacity:1;fill-rule:nonzero;stroke:none"
           id="path3120"
           inkscape:connector-curvature="0" /><path
           d="m 297.064,555.366 c 4.875,0.092 8.768,4.095 8.675,8.924 -0.093,4.83 -4.133,8.685 -9.009,8.594 -4.876,-0.091 -8.769,-4.096 -8.676,-8.926 0.092,-4.829 4.135,-8.683 9.01,-8.592"
           style="fill:#00adef;fill-opacity:1;fill-rule:nonzero;stroke:none"
           id="path3122"
           inkscape:connector-curvature="0" /><path
           d="m 233.021,125.802 c 77.874,1.457 140.031,65.395 138.562,142.533 -1.469,77.136 -66.017,138.704 -143.892,137.249 C 149.814,404.129 87.658,340.194 89.125,263.061 90.596,185.919 155.144,124.349 233.021,125.802"
           style="fill:#00adef;fill-opacity:1;fill-rule:nonzero;stroke:none"
           id="path3124"
           inkscape:connector-curvature="0" /><path
           d="M 91.162,263.097 C 89.714,339.116 150.979,402.135 227.73,403.568 304.478,405.003 368.098,344.321 369.547,268.3 370.996,192.271 309.731,129.255 232.982,127.819 156.232,126.386 92.61,187.07 91.162,263.097 m 141.897,-139.31 c 78.996,1.475 142.05,66.336 140.56,144.587 C 372.128,346.622 306.65,409.078 227.654,407.603 148.658,406.125 85.602,341.268 87.092,263.02 88.581,184.769 154.063,122.31 233.059,123.787"
           style="fill:#00adef;fill-opacity:1;fill-rule:nonzero;stroke:none"
           id="path3126"
           inkscape:connector-curvature="0" /><path
           d="m 228.461,365.241 c 55.499,1.037 101.344,-42.691 102.392,-97.668 1.047,-54.977 -43.101,-100.385 -98.601,-101.425 -55.502,-1.035 -101.346,42.694 -102.394,97.67 -1.046,54.975 43.099,100.385 98.603,101.423"
           style="fill:#ffffff;fill-opacity:1;fill-rule:nonzero;stroke:none"
           id="path3128"
           inkscape:connector-curvature="0" /><path
           d="m 127.822,263.78 c 1.067,-56.001 47.93,-100.704 104.469,-99.649 56.536,1.057 101.663,47.478 100.596,103.481 -1.067,56 -47.929,100.701 -104.466,99.643 C 171.882,366.2 126.754,319.782 127.822,263.78 m 100.676,99.442 c 54.291,1.014 99.294,-41.909 100.319,-95.687 1.023,-53.779 -42.313,-98.351 -96.603,-99.367 -54.292,-1.016 -99.297,41.908 -100.32,95.687 -1.026,53.777 42.314,98.353 96.604,99.367"
           style="fill:#00adef;fill-opacity:1;fill-rule:nonzero;stroke:none"
           id="path3130"
           inkscape:connector-curvature="0" /><path
           d="m 231.484,206.493 c 32.954,0.615 59.257,27.675 58.637,60.321 -0.621,32.64 -27.939,58.695 -60.892,58.08 -32.957,-0.616 -59.261,-27.674 -58.64,-60.316 0.623,-32.645 27.938,-58.7 60.895,-58.085"
           style="fill:#00adef;fill-opacity:1;fill-rule:nonzero;stroke:none"
           id="path3132"
           inkscape:connector-curvature="0" /><path
           d="m 172.625,264.617 c -0.601,31.529 24.807,57.664 56.643,58.259 31.83,0.594 58.216,-24.572 58.817,-56.103 0.601,-31.533 -24.809,-57.668 -56.64,-58.26 -31.834,-0.594 -58.22,24.57 -58.82,56.104 m 58.897,-60.141 c 34.077,0.638 61.278,28.619 60.635,62.376 -0.643,33.752 -28.89,60.699 -62.967,60.06 -34.078,-0.637 -61.28,-28.618 -60.637,-62.371 0.642,-33.758 28.89,-60.699 62.969,-60.065"
           style="fill:#00adef;fill-opacity:1;fill-rule:nonzero;stroke:none"
           id="path3134"
           inkscape:connector-curvature="0" /><path
           d="M 246.766,0.157 C 267.648,25.18 279.955,57.42 279.29,92.348 277.812,169.926 212.89,231.854 134.57,230.389 69.443,229.173 15.243,184.5 -0.319,124.877 V 54.51 C 4.96,34.257 14.68,15.786 27.73,0.157 Z"
           style="fill:#00adef;fill-opacity:1;fill-rule:nonzero;stroke:none"
           id="path3136"
           inkscape:connector-curvature="0" /><path
           d="m 248.614,0.157 c 20.638,25.146 32.769,57.355 32.105,92.218 -1.492,78.359 -67.068,140.908 -146.176,139.43 C 70.567,230.608 17.033,187.903 -0.319,130.162 V 118.696 C 12.98,180.613 68.021,227.729 134.596,228.974 212.131,230.422 276.397,169.12 277.861,92.322 278.526,57.324 266.037,25.055 244.905,0.157 Z"
           style="fill:#00adef;fill-opacity:1;fill-rule:nonzero;stroke:none"
           id="path3138"
           inkscape:connector-curvature="0" /><path
           d="M 29.59,0.157 C 15.035,17.295 4.556,37.96 -0.319,60.697 V 49.219 C 5.127,31.075 14.132,14.462 25.879,0.157 Z"
           style="fill:#00adef;fill-opacity:1;fill-rule:nonzero;stroke:none"
           id="path3140"
           inkscape:connector-curvature="0" /><path
           d="m 205.763,0.157 c 27.876,20.986 45.641,54.406 44.932,91.657 -1.181,61.964 -53.03,111.419 -115.585,110.251 C 72.557,200.896 22.625,149.536 23.805,87.574 24.486,51.839 42.022,20.262 68.746,0.157 Z"
           style="fill:#ffffff;fill-opacity:1;fill-rule:nonzero;stroke:none"
           id="path3142"
           inkscape:connector-curvature="0" /><path
           d="m 208.101,0.157 c 27.377,21.308 44.728,54.622 44.023,91.686 -1.195,62.74 -53.699,112.82 -117.041,111.638 C 71.741,202.298 21.181,150.29 22.375,87.549 23.052,52.022 40.178,20.557 66.406,0.157 h 4.731 C 43.893,19.943 25.92,51.64 25.235,87.601 24.07,148.784 73.373,199.493 135.137,200.649 196.9,201.804 248.099,152.966 249.264,91.789 249.977,54.331 231.772,20.796 203.373,0.157 Z"
           style="fill:#00adef;fill-opacity:1;fill-rule:nonzero;stroke:none"
           id="path3144"
           inkscape:connector-curvature="0" /><path
           d="m 178.023,0.157 c 35.021,15.705 59.143,50.965 58.374,91.389 -1.031,54.156 -46.346,97.38 -101.017,96.358 C 80.707,186.88 37.072,141.996 38.103,87.842 38.847,48.729 62.697,15.313 96.488,0.157 Z"
           style="fill:#00adef;fill-opacity:1;fill-rule:nonzero;stroke:none"
           id="path3146"
           inkscape:connector-curvature="0" /><path
           d="m 181.378,0.157 c 34.024,16.517 57.209,51.484 56.447,91.416 -1.044,54.935 -47.013,98.782 -102.472,97.749 C 79.893,188.283 35.626,142.746 36.674,87.814 37.409,49.213 60.328,16.084 93.135,0.157 h 6.954 C 65.2,14.423 40.289,48.166 39.533,87.869 c -1.017,53.371 41.993,97.61 95.873,98.619 53.881,1.004 98.545,-41.595 99.56,-94.967 C 235.748,50.53 210.56,14.926 174.422,0.157 Z"
           style="fill:#00adef;fill-opacity:1;fill-rule:nonzero;stroke:none"
           id="path3148"
           inkscape:connector-curvature="0" /><path
           d="m 135.918,159.577 c 38.963,0.727 71.148,-29.971 71.883,-68.563 0.737,-38.597 -30.257,-70.473 -69.221,-71.203 -38.962,-0.729 -71.147,29.97 -71.881,68.565 -0.736,38.597 30.256,70.474 69.219,71.201"
           style="fill:#ffffff;fill-opacity:1;fill-rule:nonzero;stroke:none"
           id="path3150"
           inkscape:connector-curvature="0" /><path
           d="m 65.268,88.351 c 0.749,-39.318 33.647,-70.699 73.341,-69.958 39.692,0.743 71.372,33.333 70.623,72.646 -0.749,39.314 -33.648,70.698 -73.341,69.954 C 96.199,160.254 64.52,127.666 65.268,88.351 m 70.677,69.812 c 38.115,0.711 69.708,-29.425 70.426,-67.177 0.721,-37.752 -29.703,-69.047 -67.817,-69.761 -38.115,-0.711 -69.707,29.426 -70.426,67.178 -0.72,37.754 29.703,69.045 67.817,69.76"
           style="fill:#00adef;fill-opacity:1;fill-rule:nonzero;stroke:none"
           id="path3152"
           inkscape:connector-curvature="0" /><path
           d="m 138.041,48.135 c 23.135,0.431 41.602,19.428 41.166,42.344 -0.436,22.917 -19.612,41.206 -42.75,40.776 -23.135,-0.434 -41.6,-19.428 -41.165,-42.343 0.437,-22.919 19.614,-41.209 42.749,-40.777"
           style="fill:#00adef;fill-opacity:1;fill-rule:nonzero;stroke:none"
           id="path3154"
           inkscape:connector-curvature="0" /><path
           d="m 96.723,88.936 c -0.422,22.137 17.417,40.486 39.763,40.901 22.346,0.418 40.87,-17.25 41.292,-39.383 0.42,-22.138 -17.419,-40.484 -39.764,-40.903 -22.346,-0.416 -40.87,17.252 -41.291,39.385 m 41.346,-42.217 c 23.922,0.447 43.019,20.09 42.568,43.786 -0.452,23.697 -20.283,42.613 -44.206,42.164 -23.923,-0.446 -43.019,-20.088 -42.568,-43.784 0.451,-23.697 20.282,-42.614 44.206,-42.166"
           style="fill:#00adef;fill-opacity:1;fill-rule:nonzero;stroke:none"
           id="path3156"
           inkscape:connector-curvature="0" /><path
           d="M 5.214,611.708 C 3.356,611.34 1.512,610.936 -0.319,610.497 V 336.946 c 11.576,-2.782 23.694,-4.153 36.15,-3.92 78.32,1.464 140.836,65.769 139.358,143.349 -1.279,67.19 -50.148,122.639 -114.095,135.333 z"
           style="fill:#00adef;fill-opacity:1;fill-rule:nonzero;stroke:none"
           id="path3158"
           inkscape:connector-curvature="0" /><path
           d="m -0.319,611.708 v -2.67 c 4.62,1.121 9.331,2.015 14.119,2.67 z"
           style="fill:#00adef;fill-opacity:1;fill-rule:nonzero;stroke:none"
           id="path3160"
           inkscape:connector-curvature="0" /><path
           d="m 52.527,611.708 c 67.322,-9.234 119.911,-65.972 121.233,-135.36 1.463,-76.798 -60.424,-140.456 -137.957,-141.905 -12.451,-0.233 -24.56,1.153 -36.122,3.961 v -2.914 c 11.591,-2.756 23.715,-4.111 36.176,-3.878 79.108,1.476 142.254,66.43 140.763,144.789 -1.251,65.658 -47.493,120.214 -108.988,135.307 z"
           style="fill:#00adef;fill-opacity:1;fill-rule:nonzero;stroke:none"
           id="path3162"
           inkscape:connector-curvature="0" /><path
           d="m -0.319,366.322 c 11.243,-3.447 23.216,-5.202 35.611,-4.97 62.553,1.168 112.482,52.53 111.304,114.488 -1.181,61.964 -53.031,111.419 -115.586,110.252 -10.894,-0.204 -21.405,-1.93 -31.329,-4.969 z"
           style="fill:#ffffff;fill-opacity:1;fill-rule:nonzero;stroke:none"
           id="path3164"
           inkscape:connector-curvature="0" /><path
           d="m -0.319,364.839 c 11.261,-3.405 23.241,-5.136 35.636,-4.905 63.342,1.184 113.901,53.191 112.706,115.933 C 146.83,538.61 94.325,588.69 30.983,587.506 20.106,587.303 9.606,585.601 -0.319,582.604 v -2.966 c 9.923,3.082 20.446,4.832 31.357,5.036 C 92.803,585.83 144,536.993 145.165,475.813 146.331,414.635 97.031,363.92 35.262,362.767 22.87,362.535 10.903,364.315 -0.319,367.805 Z"
           style="fill:#00adef;fill-opacity:1;fill-rule:nonzero;stroke:none"
           id="path3166"
           inkscape:connector-curvature="0" /><path
           d="m -0.319,381.255 c 11.027,-3.93 22.944,-5.974 35.341,-5.742 54.67,1.022 98.307,45.907 97.275,100.062 -1.031,54.152 -46.347,97.376 -101.016,96.353 -11.08,-0.206 -21.707,-2.215 -31.6,-5.737 z"
           style="fill:#00adef;fill-opacity:1;fill-rule:nonzero;stroke:none"
           id="path3168"
           inkscape:connector-curvature="0" /><path
           d="m -0.319,379.75 c 11.051,-3.875 22.972,-5.886 35.366,-5.654 55.458,1.037 99.726,46.571 98.68,101.505 -1.046,54.932 -47.014,98.78 -102.475,97.743 -11.059,-0.206 -21.673,-2.182 -31.571,-5.649 v -3.011 c 9.887,3.579 20.526,5.621 31.626,5.828 53.881,1.008 98.544,-41.594 99.561,-94.965 1.015,-53.371 -41.993,-97.61 -95.874,-98.618 -12.399,-0.232 -24.31,1.846 -35.313,5.833 z"
           style="fill:#00adef;fill-opacity:1;fill-rule:nonzero;stroke:none"
           id="path3170"
           inkscape:connector-curvature="0" /><path
           d="m -0.319,535.271 c 9.58,5.121 20.503,8.116 32.137,8.334 38.965,0.728 71.149,-29.973 71.886,-68.566 0.734,-38.598 -30.259,-70.474 -69.224,-71.202 -12.584,-0.235 -24.461,2.808 -34.799,8.336 z"
           style="fill:#ffffff;fill-opacity:1;fill-rule:nonzero;stroke:none"
           id="path3172"
           inkscape:connector-curvature="0" /><path
           d="m -0.319,410.597 c 10.394,-5.43 22.271,-8.41 34.827,-8.176 39.69,0.741 71.373,33.331 70.623,72.644 -0.748,39.314 -33.651,70.698 -73.339,69.956 -11.589,-0.217 -22.496,-3.149 -32.111,-8.171 v -3.22 c 9.552,5.257 20.499,8.34 32.166,8.558 38.114,0.712 69.707,-29.422 70.425,-67.177 0.719,-37.753 -29.703,-69.045 -67.819,-69.759 -12.596,-0.235 -24.48,2.899 -34.772,8.563 z"
           style="fill:#00adef;fill-opacity:1;fill-rule:nonzero;stroke:none"
           id="path3174"
           inkscape:connector-curvature="0" /><path
           d="m -0.319,436.234 c 9.158,-8.029 21.258,-12.816 34.423,-12.57 27.866,0.522 50.107,23.398 49.582,51.002 -0.525,27.602 -23.623,49.631 -51.489,49.113 -12.48,-0.234 -23.832,-4.951 -32.516,-12.57 z"
           style="fill:#00adef;fill-opacity:1;fill-rule:nonzero;stroke:none"
           id="path3176"
           inkscape:connector-curvature="0" /><path
           d="m -0.319,434.365 c 9.298,-7.768 21.362,-12.362 34.449,-12.118 28.655,0.536 51.526,24.063 50.985,52.445 C 84.576,503.076 60.824,525.73 32.17,525.193 19.786,524.962 8.481,520.436 -0.319,513.08 v -3.785 c 8.551,7.902 19.957,12.831 32.543,13.066 27.079,0.507 49.522,-20.904 50.032,-47.723 0.511,-26.819 -21.1,-49.052 -48.18,-49.558 -13.251,-0.247 -25.391,4.753 -34.395,13.068 z"
           style="fill:#00adef;fill-opacity:1;fill-rule:nonzero;stroke:none"
           id="path3178"
           inkscape:connector-curvature="0" /><path
           d="m -0.319,170.078 c 47.487,8.032 83.325,49.541 82.39,98.673 -0.911,47.862 -36.412,87.186 -82.39,94.972 z"
           style="fill:#00adef;fill-opacity:1;fill-rule:nonzero;stroke:none"
           id="path3180"
           inkscape:connector-curvature="0" /><path
           d="m -0.319,168.641 c 48.293,8.047 84.771,50.213 83.819,100.137 -0.925,48.634 -37.062,88.578 -83.819,96.382 v -2.874 c 45.196,-7.773 80.064,-46.477 80.961,-93.562 0.921,-48.34 -34.28,-89.191 -80.961,-97.208 z"
           style="fill:#00adef;fill-opacity:1;fill-rule:nonzero;stroke:none"
           id="path3182"
           inkscape:connector-curvature="0" /><path
           d="M -0.319,334.815 C 30.053,327.481 52.858,300.633 53.476,268.219 54.111,234.883 31.077,206.558 -0.319,198.986 Z"
           style="fill:#ffffff;fill-opacity:1;fill-rule:nonzero;stroke:none"
           id="path3184"
           inkscape:connector-curvature="0" /><path
           d="m -0.319,197.538 c 32.166,7.619 55.874,36.634 55.226,70.703 -0.633,33.138 -24.102,60.638 -55.226,68.021 v -2.916 c 29.557,-7.321 51.764,-33.573 52.365,-65.157 0.619,-32.482 -21.815,-60.181 -52.365,-67.736 z"
           style="fill:#00adef;fill-opacity:1;fill-rule:nonzero;stroke:none"
           id="path3186"
           inkscape:connector-curvature="0" /><path
           d="m 147.344,222.212 c 54.672,1.023 98.307,45.911 97.277,100.061 -1.032,54.156 -46.346,97.378 -101.018,96.356 -54.67,-1.022 -98.308,-45.907 -97.276,-100.059 1.031,-54.152 46.346,-97.38 101.017,-96.358"
           style="fill:#00adef;fill-opacity:1;fill-rule:nonzero;stroke:none"
           id="path3188"
           inkscape:connector-curvature="0" /><path
           d="m 47.756,318.595 c -1.016,53.37 41.994,97.612 95.874,98.618 53.881,1.008 98.545,-41.595 99.561,-94.967 1.017,-53.371 -41.993,-97.61 -95.874,-98.614 -53.881,-1.01 -98.544,41.594 -99.561,94.963 m 99.615,-97.797 c 55.459,1.035 99.726,46.567 98.678,101.503 -1.046,54.934 -47.014,98.782 -102.473,97.743 -55.458,-1.036 -99.725,-46.568 -98.68,-101.502 1.047,-54.935 47.016,-98.783 102.475,-97.744"
           style="fill:#00adef;fill-opacity:1;fill-rule:nonzero;stroke:none"
           id="path3190"
           inkscape:connector-curvature="0" /><path
           d="m 144.143,390.306 c 38.963,0.726 71.148,-29.972 71.882,-68.567 0.734,-38.594 -30.257,-70.472 -69.22,-71.203 -38.963,-0.724 -71.148,29.971 -71.884,68.568 -0.734,38.593 30.258,70.473 69.222,71.202"
           style="fill:#ffffff;fill-opacity:1;fill-rule:nonzero;stroke:none"
           id="path3192"
           inkscape:connector-curvature="0" /><path
           d="m 73.491,319.075 c 0.748,-39.313 33.651,-70.695 73.341,-69.953 39.689,0.742 71.373,33.327 70.623,72.645 -0.749,39.313 -33.649,70.696 -73.34,69.954 -39.688,-0.742 -71.372,-33.331 -70.624,-72.646 m 70.678,69.814 c 38.115,0.713 69.707,-29.422 70.427,-67.175 0.719,-37.755 -29.703,-69.047 -67.818,-69.76 -38.115,-0.713 -69.708,29.421 -70.426,67.175 -0.719,37.754 29.702,69.048 67.817,69.76"
           style="fill:#00adef;fill-opacity:1;fill-rule:nonzero;stroke:none"
           id="path3194"
           inkscape:connector-curvature="0" /><path
           d="m 146.265,278.862 c 23.136,0.433 41.601,19.424 41.166,42.343 -0.436,22.916 -19.614,41.209 -42.749,40.777 -23.136,-0.433 -41.601,-19.428 -41.165,-42.344 0.436,-22.916 19.613,-41.209 42.748,-40.776"
           style="fill:#00adef;fill-opacity:1;fill-rule:nonzero;stroke:none"
           id="path3196"
           inkscape:connector-curvature="0" /><path
           d="m 104.947,319.663 c -0.422,22.134 17.414,40.485 39.762,40.901 22.349,0.419 40.871,-17.251 41.291,-39.385 0.423,-22.137 -17.414,-40.484 -39.762,-40.902 -22.348,-0.417 -40.87,17.251 -41.291,39.386 m 41.345,-42.217 c 23.923,0.447 43.02,20.088 42.568,43.786 -0.45,23.697 -20.282,42.613 -44.205,42.165 -23.923,-0.446 -43.02,-20.09 -42.567,-43.788 0.45,-23.696 20.282,-42.612 44.204,-42.163"
           style="fill:#00adef;fill-opacity:1;fill-rule:nonzero;stroke:none"
           id="path3198"
           inkscape:connector-curvature="0" /><path
           d="m 223.421,385.61 c 54.672,1.023 98.308,45.911 97.277,100.061 -1.032,54.153 -46.346,97.377 -101.018,96.355 -54.671,-1.022 -98.307,-45.906 -97.275,-100.06 1.03,-54.151 46.345,-97.377 101.016,-96.356"
           style="fill:#00adef;fill-opacity:1;fill-rule:nonzero;stroke:none"
           id="path3200"
           inkscape:connector-curvature="0" /><path
           d="m 123.833,481.993 c -1.016,53.37 41.994,97.612 95.875,98.617 53.88,1.009 98.543,-41.594 99.56,-94.966 1.016,-53.371 -41.993,-97.611 -95.873,-98.617 -53.881,-1.007 -98.545,41.596 -99.562,94.966 m 99.616,-97.799 c 55.458,1.037 99.725,46.571 98.679,101.504 -1.046,54.934 -47.017,98.782 -102.474,97.743 -55.459,-1.035 -99.727,-46.567 -98.679,-101.502 1.045,-54.933 47.014,-98.781 102.474,-97.745"
           style="fill:#00adef;fill-opacity:1;fill-rule:nonzero;stroke:none"
           id="path3202"
           inkscape:connector-curvature="0" /><path
           d="m 220.22,553.703 c 38.963,0.727 71.147,-29.972 71.882,-68.566 0.737,-38.595 -30.257,-70.474 -69.22,-71.202 -38.964,-0.728 -71.148,29.971 -71.884,68.566 -0.734,38.593 30.259,70.473 69.222,71.202"
           style="fill:#ffffff;fill-opacity:1;fill-rule:nonzero;stroke:none"
           id="path3204"
           inkscape:connector-curvature="0" /><path
           d="m 149.568,482.474 c 0.751,-39.316 33.652,-70.696 73.34,-69.954 39.69,0.74 71.373,33.328 70.624,72.643 -0.749,39.316 -33.65,70.697 -73.338,69.955 -39.691,-0.741 -71.374,-33.331 -70.626,-72.644 m 70.679,69.812 c 38.115,0.713 69.707,-29.422 70.426,-67.176 0.719,-37.753 -29.703,-69.047 -67.818,-69.759 -38.115,-0.712 -69.708,29.421 -70.426,67.176 -0.719,37.754 29.704,69.047 67.818,69.759"
           style="fill:#00adef;fill-opacity:1;fill-rule:nonzero;stroke:none"
           id="path3206"
           inkscape:connector-curvature="0" /><path
           d="m 222.344,442.259 c 23.134,0.432 41.6,19.427 41.164,42.344 -0.437,22.916 -19.614,41.209 -42.749,40.775 -23.135,-0.433 -41.601,-19.426 -41.165,-42.344 0.437,-22.915 19.613,-41.208 42.75,-40.775"
           style="fill:#00adef;fill-opacity:1;fill-rule:nonzero;stroke:none"
           id="path3208"
           inkscape:connector-curvature="0" /><path
           d="m 181.024,483.061 c -0.421,22.134 17.416,40.483 39.762,40.901 22.348,0.419 40.87,-17.253 41.292,-39.385 0.422,-22.133 -17.414,-40.484 -39.762,-40.901 -22.346,-0.419 -40.871,17.252 -41.292,39.385 m 41.345,-42.217 c 23.924,0.445 43.02,20.089 42.569,43.786 -0.451,23.695 -20.282,42.612 -44.207,42.163 -23.922,-0.446 -43.019,-20.089 -42.567,-43.785 0.451,-23.696 20.281,-42.612 44.205,-42.164"
           style="fill:#00adef;fill-opacity:1;fill-rule:nonzero;stroke:none"
           id="path3210"
           inkscape:connector-curvature="0" /><path
           d="m 51.381,611.708 c 10.981,-43.35 51.064,-75.171 98.064,-74.295 45.696,0.855 83.683,32.356 94.322,74.295 z"
           style="fill:#00adef;fill-opacity:1;fill-rule:nonzero;stroke:none"
           id="path3212"
           inkscape:connector-curvature="0" /><path
           d="m 49.907,611.708 c 11.013,-44.154 51.764,-76.605 99.564,-75.711 46.481,0.869 85.099,32.994 95.77,75.711 h -2.949 c -10.605,-41.164 -47.963,-72.04 -92.874,-72.879 -46.195,-0.863 -85.614,30.329 -96.561,72.879 z"
           style="fill:#00adef;fill-opacity:1;fill-rule:nonzero;stroke:none"
           id="path3214"
           inkscape:connector-curvature="0" /><path
           d="m 213.9,611.708 c -9.694,-26.363 -34.979,-45.41 -64.995,-45.97 -30.954,-0.579 -57.631,18.678 -67.657,45.97 z"
           style="fill:#ffffff;fill-opacity:1;fill-rule:nonzero;stroke:none"
           id="path3216"
           inkscape:connector-curvature="0" /><path
           d="m 79.741,611.708 c 10.112,-28.073 37.484,-47.979 69.191,-47.387 30.751,0.575 56.693,20.263 66.472,47.387 h -3.045 c -9.648,-25.555 -34.312,-44.009 -63.481,-44.555 -30.088,-0.562 -56.112,18.098 -66.092,44.555 z"
           style="fill:#00adef;fill-opacity:1;fill-rule:nonzero;stroke:none"
           id="path3218"
           inkscape:connector-curvature="0" /><path
           d="m 113.265,611.708 c 7.761,-10.892 20.659,-17.916 35.101,-17.647 13.874,0.258 26.069,7.194 33.515,17.647 z"
           style="fill:#00adef;fill-opacity:1;fill-rule:nonzero;stroke:none"
           id="path3220"
           inkscape:connector-curvature="0" /><path
           d="m 111.53,611.708 c 7.956,-11.726 21.574,-19.349 36.862,-19.062 14.705,0.273 27.585,7.799 35.223,19.062 h -3.499 c -7.238,-9.641 -18.741,-15.987 -31.778,-16.23 -13.584,-0.254 -25.756,6.176 -33.308,16.23 z"
           style="fill:#00adef;fill-opacity:1;fill-rule:nonzero;stroke:none"
           id="path3222"
           inkscape:connector-curvature="0" /><path
           d="m -0.319,213.691 c 23.255,7.197 39.981,28.943 39.499,54.259 -0.47,24.58 -17.018,45.191 -39.499,52.157 z"
           style="fill:#00adef;fill-opacity:1;fill-rule:nonzero;stroke:none"
           id="path3224"
           inkscape:connector-curvature="0" /><path
           d="m -0.319,212.208 c 24.068,7.244 41.424,29.653 40.928,55.77 -0.483,25.359 -17.658,46.599 -40.928,53.611 v -2.968 c 21.692,-6.915 37.614,-26.899 38.068,-50.7 0.466,-24.514 -15.627,-45.597 -38.068,-52.744 z"
           style="fill:#00adef;fill-opacity:1;fill-rule:nonzero;stroke:none"
           id="path3226"
           inkscape:connector-curvature="0" /><path
           d="m -0.319,245.107 c 6.766,5.119 11.075,13.247 10.902,22.307 -0.165,8.692 -4.417,16.372 -10.902,21.275 z"
           style="fill:#ffffff;fill-opacity:1;fill-rule:nonzero;stroke:none"
           id="path3228"
           inkscape:connector-curvature="0" /><path
           d="m -0.319,243.351 c 7.611,5.331 12.521,14.183 12.333,24.092 -0.181,9.519 -5.027,17.889 -12.333,23.004 v -3.568 c 5.66,-4.663 9.324,-11.644 9.472,-19.492 0.157,-8.197 -3.557,-15.592 -9.472,-20.469 z"
           style="fill:#00adef;fill-opacity:1;fill-rule:nonzero;stroke:none"
           id="path3230"
           inkscape:connector-curvature="0" /><path
           d="m 355.668,572.556 c -14.191,17.136 -34.24,27.724 -56.451,29.81 -22.214,2.087 -43.887,-4.575 -61.021,-18.771 -17.137,-14.191 -27.724,-34.24 -29.811,-56.451 -2.088,-22.214 4.578,-43.883 18.773,-61.018 29.338,-35.431 82.037,-40.383 117.465,-11.042 35.434,29.343 40.385,82.04 11.045,117.472 z"
           style="fill:none;stroke:#00adef;stroke-width:1.11199999;stroke-linecap:butt;stroke-linejoin:miter;stroke-miterlimit:4;stroke-dasharray:none;stroke-opacity:1"
           id="path3232"
           inkscape:connector-curvature="0" /><path
           d="m 471.381,350.33 c -25.252,18.158 -56.112,25.389 -86.887,20.356 -30.784,-5.032 -57.739,-21.708 -75.892,-46.964 -18.16,-25.253 -25.39,-56.113 -20.358,-86.888 5.031,-30.782 21.71,-57.731 46.967,-75.888 52.206,-37.545 125.23,-25.607 162.77,26.605 37.548,52.214 25.611,125.233 -26.6,162.779 z"
           style="fill:none;stroke:#0ab0f0;stroke-width:1.55499995;stroke-linecap:butt;stroke-linejoin:miter;stroke-miterlimit:4;stroke-dasharray:none;stroke-opacity:1"
           id="path3234"
           inkscape:connector-curvature="0" /><path
           d="m 408.23,251.235 c -9.755,29.535 -30.472,53.521 -58.329,67.54 -27.862,14.021 -59.469,16.377 -89.002,6.612 -29.535,-9.755 -53.522,-30.472 -67.542,-58.328 -14.022,-27.861 -16.37,-59.466 -6.608,-88.998 20.168,-61.063 86.262,-94.33 147.32,-74.154 61.069,20.172 94.33,86.265 74.161,147.328 z"
           style="fill:none;stroke:#25b9f1;stroke-width:1.55499995;stroke-linecap:butt;stroke-linejoin:miter;stroke-miterlimit:4;stroke-dasharray:none;stroke-opacity:1"
           id="path3236"
           inkscape:connector-curvature="0" /><path
           d="m 278.25,138.528 c 9.466,29.629 6.806,61.212 -7.491,88.927 -14.298,27.72 -38.487,48.203 -68.116,57.663 -29.63,9.467 -61.212,6.807 -88.927,-7.489 C 85.995,263.332 65.517,239.143 56.057,209.511 36.482,148.258 70.399,82.495 131.655,62.928 c 61.262,-19.574 127.021,14.343 146.595,75.6 z"
           style="fill:none;stroke:#41c2f3;stroke-width:1.55499995;stroke-linecap:butt;stroke-linejoin:miter;stroke-miterlimit:4;stroke-dasharray:none;stroke-opacity:1"
           id="path3238"
           inkscape:connector-curvature="0" /><path
           d="m 380.118,254.863 c 25.073,18.408 41.486,45.522 46.21,76.348 4.726,30.83 -2.803,61.619 -21.213,86.688 -18.407,25.076 -45.521,41.486 -76.345,46.212 -30.832,4.726 -61.615,-2.806 -86.687,-21.218 -51.84,-38.049 -63.054,-111.189 -24.998,-163.025 38.056,-51.845 111.192,-63.055 163.033,-25.005 z"
           style="fill:none;stroke:#5ccbf5;stroke-width:1.55499995;stroke-linecap:butt;stroke-linejoin:miter;stroke-miterlimit:4;stroke-dasharray:none;stroke-opacity:1"
           id="path3240"
           inkscape:connector-curvature="0" /><path
           d="m 266.088,547.861 c -25.072,-18.405 -41.485,-45.52 -46.209,-76.345 -4.726,-30.83 2.802,-61.621 21.214,-86.69 18.405,-25.075 45.521,-41.486 76.345,-46.211 30.83,-4.726 61.615,2.806 86.686,21.218 51.841,38.049 63.054,111.188 24.998,163.023 -38.056,51.845 -111.19,63.057 -163.034,25.005 z"
           style="fill:none;stroke:#e4f6fd;stroke-width:1.55499995;stroke-linecap:butt;stroke-linejoin:miter;stroke-miterlimit:4;stroke-dasharray:none;stroke-opacity:1"
           id="path3242"
           inkscape:connector-curvature="0" /><path
           d="M 297.317,602.812 C 266.216,602.659 237,590.371 215.059,568.208 193.115,546.044 181.107,516.71 181.267,485.606 c 0.152,-31.105 12.441,-60.318 34.603,-82.261 22.163,-21.945 51.496,-33.945 82.602,-33.787 64.304,0.312 116.366,52.892 116.046,117.197 -0.314,64.311 -52.892,116.369 -117.201,116.057 z"
           style="fill:none;stroke:#ffffff;stroke-width:1.55499995;stroke-linecap:butt;stroke-linejoin:miter;stroke-miterlimit:4;stroke-dasharray:none;stroke-opacity:1"
           id="path3244"
           inkscape:connector-curvature="0" /></g></g></g></svg>