<?xml version="1.0" encoding="utf-8"?>

<!DOCTYPE svg PUBLIC "-//W3C//DTD SVG 1.1//EN" "http://www.w3.org/Graphics/SVG/1.1/DTD/svg11.dtd">
<svg version="1.1" id="Layer_1" xmlns="http://www.w3.org/2000/svg" xmlns:xlink="http://www.w3.org/1999/xlink" x="0px" y="0px"
	 viewBox="0 0 2585.897 258.388" enable-background="new 0 0 2585.897 258.388" xml:space="preserve">
<path d="M2572.948,65.016c-38.313,20.846-105.699,53.719-151.291,41.472c0.14-25.645-4.119-37.863-12.807-47.241
	c-36.803,38.682-69.387,53.929-108.879,53.929c-19.276,0-40.192-3.629-64.048-9.938c-96.631-25.535-196.351-69.416-305.46-69.416
	c-102.48,0-199.431,23.905-285.624,66.177c-54.109-58.419-138.913-86.093-209.359-71.226c-18.416,3.789-30.034,10.648-53.19,18.036
	c-22.926,7.309-59.548,9.708-88.963-6.579c0.03-0.15,0.05-0.31,0.07-0.46c-0.15,0.08-0.3,0.17-0.45,0.25
	c-0.15-0.08-0.3-0.17-0.45-0.25c0.02,0.15,0.04,0.31,0.07,0.46c-29.414,16.287-66.037,13.887-88.963,6.579
	c-23.156-7.389-34.773-14.247-53.19-18.036C1079.97,13.906,995.167,41.581,941.057,100
	c-86.193-42.272-183.144-66.177-285.624-66.177c-109.109,0-208.829,43.881-305.46,69.416c-23.855,6.309-44.771,9.938-64.047,9.938
	c-39.492,0-72.076-15.247-108.879-53.929c-8.688,9.378-12.947,21.596-12.808,47.241c-45.591,12.248-112.978-20.626-151.29-41.472
	c10.558,24.605,23.395,46.191,39.332,64.177c-15.937,17.986-28.774,39.572-39.332,64.177c38.313-20.846,105.699-53.72,151.29-41.472
	c-0.14,25.645,4.119,37.863,12.808,47.241c36.803-38.682,69.386-53.929,108.879-53.929c19.276,0,40.192,3.629,64.047,9.938
	c96.631,25.535,196.352,69.416,305.46,69.416c102.48,0,199.431-23.905,285.624-66.177c54.109,58.419,138.913,86.093,209.359,71.226
	c18.417-3.789,30.034-10.648,53.19-18.037c22.926-7.309,59.548-9.708,88.963,6.579c-0.03,0.15-0.05,0.31-0.07,0.46
	c0.15-0.08,0.3-0.17,0.45-0.25c0.15,0.08,0.3,0.17,0.45,0.25c-0.02-0.15-0.04-0.31-0.07-0.46
	c29.414-16.287,66.037-13.887,88.963-6.579c23.156,7.389,34.773,14.247,53.19,18.037c70.446,14.867,155.25-12.807,209.359-71.226
	c86.193,42.272,183.144,66.177,285.624,66.177c109.109,0,208.829-43.881,305.46-69.416c23.855-6.309,44.771-9.938,64.048-9.938
	c39.492,0,72.076,15.247,108.879,53.929c8.688-9.378,12.948-21.596,12.807-47.241c45.591-12.248,112.978,20.626,151.291,41.472
	c-10.558-24.605-23.396-46.191-39.333-64.177C2549.553,111.207,2562.39,89.622,2572.948,65.016z"/>
</svg>
